<?xml version="1.0" encoding="utf-8"?>
<!-- Generator: Adobe Illustrator 19.0.0, SVG Export Plug-In . SVG Version: 6.00 Build 0)  -->
<svg version="1.1" id="图层_1" xmlns="http://www.w3.org/2000/svg" xmlns:xlink="http://www.w3.org/1999/xlink" x="0px" y="0px"
	 viewBox="-687 689 24 24" style="enable-background:new -687 689 24 24;" xml:space="preserve">
<style type="text/css">
	.st0{fill:#8B8B95;}
</style>
<title>表情</title>
<desc>Created with Sketch.</desc>
<g id="Page-1">
	<g id="聊天" transform="translate(-331.000000, -474.000000)">
		<g id="聊天窗口" transform="translate(314.000000, 60.000000)">
			<g id="Group-4" transform="translate(1.000000, 404.000000)">
				<g id="Group-14" transform="translate(16.000000, 10.000000)">
					<g id="表情">
						<g id="Group" transform="translate(1.800000, 1.800000)">
							<g id="Oval-2">
								<path class="st0" d="M-676.8,709.9c-5.9,0-10.7-4.8-10.7-10.7c0-5.9,4.8-10.7,10.7-10.7c5.9,0,10.7,4.8,10.7,10.7
									C-666.1,705.1-670.9,709.9-676.8,709.9z M-676.8,689.5c-5.3,0-9.7,4.4-9.7,9.7s4.4,9.7,9.7,9.7s9.7-4.4,9.7-9.7
									S-671.5,689.5-676.8,689.5z"/>
							</g>
							<g id="Oval-3">
								<path class="st0" d="M-676.8,704.6c3.8,0,4.7-3.8,4.7-3.8c0.1-0.3-0.1-0.5-0.3-0.6c0,0-1.7-0.4-4.4-0.4s-4.4,0.4-4.4,0.4
									c-0.3,0.1-0.4,0.3-0.3,0.6C-681.5,700.8-680.6,704.6-676.8,704.6z"/>
							</g>
							<g id="Rectangle-23">
								<path class="st0" d="M-680,695L-680,695c0.4,0,0.8,0.3,0.8,0.8v0.5c0,0.4-0.3,0.8-0.8,0.8l0,0c-0.4,0-0.8-0.3-0.8-0.8v-0.5
									C-680.7,695.3-680.4,695-680,695z"/>
							</g>
							<g id="Rectangle-23-Copy">
								<path class="st0" d="M-673.7,695L-673.7,695c0.4,0,0.8,0.3,0.8,0.8v0.3c0,0.4-0.3,0.8-0.8,0.8l0,0c-0.4,0-0.8-0.3-0.8-0.8
									v-0.3C-674.4,695.3-674.1,695-673.7,695z"/>
							</g>
						</g>
					</g>
				</g>
			</g>
		</g>
	</g>
</g>
</svg>
